<?xml version="1.0" encoding="UTF-8"?>
<!--Generator: Apple Native CoreSVG 362-->
<!DOCTYPE svg
PUBLIC "-//W3C//DTD SVG 1.1//EN"
       "http://www.w3.org/Graphics/SVG/1.1/DTD/svg11.dtd">
 <svg version="1.1" xmlns="http://www.w3.org/2000/svg" xmlns:xlink="http://www.w3.org/1999/xlink" viewBox="0 0 28 27.3956">
 <defs>
  <linearGradient id="writing-tools-spectrum" gradientUnits="userSpaceOnUse" x1="0" y1="0" x2="28" y2="27.3956">
   <stop offset="0%" stop-color="#ff713d"/>
   <stop offset="24%" stop-color="#f04478"/>
   <stop offset="48%" stop-color="#bd55bd"/>
   <stop offset="72%" stop-color="#287fec"/>
   <stop offset="88%" stop-color="#36b9dd"/>
   <stop offset="100%" stop-color="#54c8cb"/>
  </linearGradient>
  <linearGradient id="writing-tools-pen" gradientUnits="userSpaceOnUse" x1="9.8" y1="16.5" x2="26.2" y2="3.1">
   <stop offset="0%" stop-color="#b9b6ad"/>
   <stop offset="48%" stop-color="#df8da9"/>
   <stop offset="100%" stop-color="#ed2d78"/>
  </linearGradient>
 </defs>
 <g>
  <rect height="27.3956" opacity="0" width="26.6993" x="0" y="0"/>
  <path d="M9.10413 26.1966C10.3891 26.1966 11.627 25.5193 12.9323 24.5235L13.3409 24.2154L13.7496 24.5235C15.0698 25.5193 16.2953 26.1966 17.5803 26.1966C18.1432 26.1966 18.6937 26.067 19.2789 25.8055C21.2115 24.8865 21.6824 23.0461 21.7302 20.6751L21.748 20.2259L22.1074 20.1203C24.4286 19.5445 26.1095 18.6726 26.5925 16.5981C27.0632 14.5309 25.9328 12.9844 24.0975 11.4921L22.2521 10.0469C21.5942 11.4185 20.5195 13.4647 20.1507 15.104C19.8938 16.2738 19.8362 17.5129 19.8434 18.7018C18.672 18.9638 17.4331 19.2981 16.3358 19.8293C15.298 20.3356 14.2858 21.061 13.3435 21.8036C12.4111 21.061 11.4113 20.3356 10.3636 19.8293C9.25379 19.2981 8.03475 18.9638 6.85092 18.7018C6.86057 17.5129 6.818 16.2738 6.54861 15.0916C6.29163 13.9542 5.80071 12.8347 5.29001 11.7678C6.23942 10.99 7.17917 10.1845 7.9349 9.24177C8.70306 8.30889 9.25427 7.21454 9.77052 6.15287C10.9221 6.41925 12.1437 6.64837 13.3435 6.64837C15.3039 6.64837 16.594 6.14852 18.7939 5.70548L17.7771 3.54607C16.7628 1.42188 15.4753 0 13.3435 0C11.2241 0 9.99866 1.44672 8.93216 3.54607L8.71378 3.94992L8.25217 3.86731C5.93588 3.36723 4.02079 3.43717 2.70081 5.09829C1.37095 6.77437 1.74429 8.64714 2.71758 10.7619L2.91799 11.2208L2.6117 11.4921C0.778977 12.9844-0.363856 14.5309 0.119228 16.5981C0.589891 18.6726 2.26826 19.5445 4.56454 20.1203L4.94885 20.2259L4.98153 20.6751C5.01445 23.0461 5.48788 24.8865 7.41539 25.8055C7.99326 26.067 8.55617 26.1966 9.10413 26.1966ZM16.118 4.40973C15.2249 4.59906 14.2943 4.75112 13.3435 4.75112C12.4025 4.75112 11.4843 4.59906 10.5788 4.40973L10.7397 4.13588C11.3586 2.96375 12.0023 1.89725 13.3435 1.89725C14.7095 1.89725 15.3532 2.96375 15.9695 4.13588ZM7.91535 5.70294C7.51849 6.51849 7.06182 7.32439 6.4678 8.05323C5.87631 8.80691 5.16037 9.45062 4.44467 10.0444L4.3142 9.69807C3.80073 8.49326 3.3303 7.31655 4.16792 6.28937C5.01796 5.23734 6.24942 5.39375 7.57385 5.64036ZM3.77576 12.9441C4.15718 13.7599 4.50388 14.6281 4.71852 15.5268C4.91822 16.4528 4.97574 17.3834 4.99093 18.2988L4.44841 18.1536C3.26084 17.8414 2.2286 17.4047 1.95438 16.1804C1.67509 14.9261 2.46507 14.0632 3.42533 13.2472ZM6.83621 20.619C7.74401 20.8388 8.667 21.0909 9.52559 21.5177C10.3568 21.9171 11.1179 22.4559 11.8414 23.002L11.5328 23.2351C10.4925 24.038 9.43769 24.683 8.22853 24.1171C7.02445 23.5362 6.89421 22.2974 6.86636 20.9854ZM14.8554 23.002C15.579 22.4559 16.3425 21.9171 17.1738 21.5177C18.0298 21.0909 18.9652 20.8388 19.8606 20.619L19.833 20.9605C19.8026 22.2726 19.6749 23.5238 18.4658 24.1171C17.2617 24.683 16.2244 24.0129 15.1665 23.2351ZM21.7059 18.2988C21.7211 17.3834 21.7786 16.4404 21.9808 15.5144C22.1805 14.6183 22.5297 13.7599 22.9112 12.9441L23.1473 13.1602C24.1597 14.0036 25.0367 14.864 24.745 16.1804C24.4459 17.4891 23.2745 17.9159 22.0025 18.2157Z" fill="url(#writing-tools-spectrum)"/>
  <path d="M12.5388 15.809L24.1456 6.49341L22.5874 4.57651L10.9929 13.887L9.80078 15.9974C9.67126 16.2289 9.89532 16.5175 10.1541 16.4478ZM25.0773 5.75359L26.0987 4.91669C26.5947 4.53044 26.6794 3.87347 26.2832 3.40003L26.0199 3.09434C25.6562 2.67818 25.0238 2.60112 24.5602 2.98484L23.5289 3.83162Z" fill="url(#writing-tools-pen)"/>
 </g>
</svg>
